# xmcd
#
# Track frame offsets:
#	150
#	12244
#	24562
#	37233
#	48316
#	60133
#	71027
#	83048
#	94126
#	107528
#	117483
#	126337
#	137094
#	146210
#	157821
#	169187
#	185096
#	194772
#	203995
#	215683
#
# Disc length: 3057 seconds
#
# Revision: 3
# Processed by: cddbd v1.5.2PL0 Copyright (c) Steve Scherf et al.
# Submitted via: VUPlayer 2.49
#
DISCID=2d0bef14
DTITLE=Brenda Lee - I'm Sorry
DYEAR=2000
DGENRE=Country
TTITLE0=I'm Sorry
TTITLE1=All Alone Am I
TTITLE2=Emotions
TTITLE3=Foll No. 1
TTITLE4=Break it To Me Gentle
TTITLE5=Dum Dum
TTITLE6=Jambalaya
TTITLE7=Heart in Hand
TTITLE8=I Wonder
TTITLE9=Baby Face
TTITLE10=Dynamite
TTITLE11=Sweet Nothin's
TTITLE12=Ring My Phone
TTITLE13=Let's Jump the Broomstick
TTITLE14=Losing You
TTITLE15=You Can Depend On Me
TTITLE16=My Baby Likes Western Guys
TTITLE17=Love You Till I Die
TTITLE18=Kansas City
TTITLE19=Weep No More Baby
EXTD=
EXTT0=
EXTT1=
EXTT2=
EXTT3=
EXTT4=
EXTT5=
EXTT6=
EXTT7=
EXTT8=
EXTT9=
EXTT10=
EXTT11=
EXTT12=
EXTT13=
EXTT14=
EXTT15=
EXTT16=
EXTT17=
EXTT18=
EXTT19=
PLAYORDER=
